# xmcd
#
# Track frame offsets:
#	150
#	16112
#	35204
#	54641
#	70196
#	86214
#	99230
#	119782
#	136165
#	158201
#	186828
#	208384
#	230214
#	259477
#	282360
#	303786
#
# Disc length: 4269 seconds
#
# Revision: 0
# Processed by: cddbd v1.5.1PL0 Copyright (c) Steve Scherf et al.
# Submitted via: dBpowerAMP V4.0
#
DISCID=f310ab10
DTITLE=The Eagles - The Very Best of The Eagles
DYEAR=1994
DGENRE=Country
TTITLE0=Take it Easy
TTITLE1=Witchy Woman
TTITLE2=Peaceful Easy Feeling
TTITLE3=Doolin' Dalton
TTITLE4=Desperado
TTITLE5=Tequila Sunrise
TTITLE6=Best of my Love
TTITLE7=James Dean
TTITLE8=I can't tell you why
TTITLE9=Lyin Eyes
TTITLE10=Take it to the limit
TTITLE11=One of these nights
TTITLE12=Hotel California
TTITLE13=New Kid In Town
TTITLE14=Life in the Fast Lane
TTITLE15=Heartache Tonight
EXTD=
EXTT0=
EXTT1=
EXTT2=
EXTT3=
EXTT4=
EXTT5=
EXTT6=
EXTT7=
EXTT8=
EXTT9=
EXTT10=
EXTT11=
EXTT12=
EXTT13=
EXTT14=
EXTT15=
PLAYORDER=
